<svg id="Layer_3" data-name="Layer 3" xmlns="http://www.w3.org/2000/svg" viewBox="0 0 469.8 103.21" width="300px" height="66px">
  <title>logo</title>
  <path d="M113,33.17C75.24,19,75.51,19,64.44,14.64,50.61,9.14,34,0,34,0c-1.7,5-4.75,11.51-5.56,13.23L86.15,33.16H113ZM86.09,37.51A387.67,387.67,0,0,0,54.14,62.69c-16,14.11-30.28,29.63-30.28,29.63L38,103.21s18.19-23.64,30.49-35c14.17-13.11,38.9-27.57,44.32-30.68ZM25.61,16.75,10.82,25.08s19.25,5.23,25.09,6.7C42.11,33.34,63,38.67,63,38.67,27.6,56.9,0,89.44,0,89.44l19.59.72s12-13,28.14-27.75A328.64,328.64,0,0,1,81.16,35.94Z" style="fill: #e31837"/>
  <path d="M298.2,14.33l2.41-9.86H247l-2.41,9.86h17.81l-5.13,21h18l5.13-21Zm11.44,21,12.5-18.81,3.53,18.81H343.1L336.66,4.48H317.07L295.62,35.34Zm-118-30.87-2.41,9.86h17.81l-5.13,21h18l5.13-21h17.81l2.41-9.86ZM160.14,16.52l3.53,18.81h17.44L174.67,4.47H155.08L133.63,35.33h14Zm283.05-12-7,30.86h14.42L458.1,4.47Zm-77.81,0-7.53,30.86h18.37l7.53-30.86Zm49,0H395.88l-7.53,30.86h14.47l3.55-15.44,9.18,15.44h17.2ZM382.62,58.79h14.8l4.51-19.63H387.41ZM293,39.16,279.32,58.79h15l8.63-13h24.16l2.39,13H348l-4.1-19.63Zm59.16,19.63h18.37l4.79-19.63H356.91ZM435.2,39.46l-.18-.3H417.81l11.67,19.63h15.36l4.79-19.63H435.27ZM131,39.16,117.33,58.79h15l8.63-13h24.16l2.39,13H186l-4.1-19.63Zm65.26,19.63h18l4.79-19.63H201Zm55.27,0h18l4.79-19.63h-18Z" style="fill: #e31837"/>
  <path d="M465.29,4.48a4.48,4.48,0,1,1-4.59,4.45,4.44,4.44,0,0,1,4.59-4.45Zm-.06.78a3.59,3.59,0,0,0-3.56,3.67,3.59,3.59,0,0,0,3.61,3.7A3.5,3.5,0,0,0,468.78,9a3.56,3.56,0,0,0-3.53-3.7Zm-.78,6.14h-.87V6.72a9.4,9.4,0,0,1,1.62-.14,2.31,2.31,0,0,1,1.48.36,1.18,1.18,0,0,1-.44,2.1V9.1a1.4,1.4,0,0,1,.78,1.12,3.32,3.32,0,0,0,.34,1.18h-.9a3.21,3.21,0,0,1-.36-1.23c-.11-.5-.42-.73-1.09-.73h-.56Zm0-2.64H465c.64,0,1.21-.2,1.21-.76s-.28-.76-1.12-.76a3,3,0,0,0-.67.06V8.76Z" style="fill: #e31837"/>
</svg>
